<svg width="38" height="36" viewBox="0 0 38 36" fill="none" xmlns="http://www.w3.org/2000/svg">
<path d="M0 33.2306V2.76943C0 2.03493 0.307988 1.33052 0.856211 0.811147C1.40443 0.291778 2.14798 0 2.92329 0L35.0767 0C35.852 0 36.5956 0.291778 37.1438 0.811147C37.692 1.33052 38 2.03493 38 2.76943V33.2306C38 33.9651 37.692 34.6695 37.1438 35.1889C36.5956 35.7082 35.852 36 35.0767 36H26.3096V22.8729H28.3833C28.8562 22.8729 29.3098 22.6949 29.6443 22.378C29.9787 22.0612 30.1666 21.6315 30.1666 21.1834V19.0543C30.1673 18.8322 30.1217 18.6122 30.0323 18.407C29.9429 18.2017 29.8116 18.0152 29.6459 17.8582C29.4801 17.7012 29.2832 17.5767 29.0666 17.4921C28.8499 17.4074 28.6177 17.3642 28.3833 17.3649H26.4236V14.76C26.4236 12.4329 27.5364 12.4329 28.6466 12.4329H30.077C30.3123 12.4413 30.5468 12.4013 30.7642 12.3156C30.9816 12.23 31.1769 12.1006 31.3364 11.9366C31.506 11.7826 31.6402 11.5972 31.7308 11.3919C31.8214 11.1867 31.8664 10.9659 31.863 10.7434V8.69657C31.8776 8.24088 31.701 7.79827 31.3719 7.4657C31.0427 7.13313 30.5878 6.93772 30.1069 6.92229H26.7466C25.7656 6.88709 24.7883 7.0541 23.8822 7.41178C22.9761 7.76946 22.1627 8.30927 21.4984 8.99392C20.834 9.67856 20.3345 10.4917 20.0344 11.3771C19.7342 12.2626 19.6406 13.1992 19.76 14.1223V17.3623H17.8871C17.6507 17.3589 17.4159 17.4001 17.1964 17.4834C16.9769 17.5668 16.7771 17.6907 16.6086 17.8479C16.4401 18.0051 16.3063 18.1925 16.215 18.3992C16.1237 18.6059 16.0767 18.8277 16.0767 19.0517V21.186C16.077 21.41 16.1244 21.6318 16.216 21.8383C16.3077 22.0449 16.4418 22.2321 16.6105 22.389C16.7792 22.546 16.9792 22.6696 17.1989 22.7527C17.4185 22.8358 17.6534 22.8766 17.8899 22.8729H19.76V36H2.92329C2.14798 36 1.40443 35.7082 0.856211 35.1889C0.307988 34.6695 0 33.9651 0 33.2306Z" fill="black"/>
</svg>
