<svg width="38" height="38" viewBox="0 0 38 38" fill="none" xmlns="http://www.w3.org/2000/svg">
<path d="M20.8846 0.666687C22.9471 0.672187 23.9939 0.683187 24.8977 0.708854L25.2534 0.721687C25.6641 0.736354 26.0692 0.754687 26.5587 0.776687C28.5094 0.868354 29.8404 1.17635 31.0082 1.62919C32.2182 2.09485 33.2376 2.72552 34.2569 3.74302C35.1895 4.6592 35.9109 5.76789 36.3707 6.99169C36.8236 8.15952 37.1316 9.49052 37.2232 11.443C37.2452 11.9307 37.2636 12.3359 37.2782 12.7484L37.2892 13.104C37.3167 14.006 37.3277 15.0529 37.3314 17.1154L37.3332 18.483V20.8847C37.3377 22.2219 37.3236 23.5592 37.2911 24.896L37.2801 25.2517C37.2654 25.6642 37.2471 26.0694 37.2251 26.557C37.1334 28.5095 36.8217 29.8387 36.3707 31.0084C35.9109 32.2322 35.1895 33.3409 34.2569 34.257C33.3407 35.1896 32.232 35.911 31.0082 36.3709C29.8404 36.8237 28.5094 37.1317 26.5587 37.2234L25.2534 37.2784L24.8977 37.2894C23.9939 37.315 22.9471 37.3279 20.8846 37.3315L19.5169 37.3334H17.1171C15.7792 37.3381 14.4414 37.324 13.1039 37.2912L12.7482 37.2802C12.313 37.2637 11.8779 37.2448 11.4429 37.2234C9.49224 37.1317 8.16124 36.8237 6.99157 36.3709C5.76842 35.9108 4.66038 35.1894 3.74474 34.257C2.81147 33.341 2.08944 32.2323 1.62907 31.0084C1.17624 29.8405 0.868237 28.5095 0.77657 26.557L0.72157 25.2517L0.712404 24.896C0.678608 23.5592 0.663329 22.2219 0.66657 20.8847V17.1154C0.661496 15.7781 0.674942 14.4409 0.706904 13.104L0.719737 12.7484C0.734404 12.3359 0.752737 11.9307 0.774737 11.443C0.866403 9.49052 1.1744 8.16135 1.62724 6.99169C2.08868 5.76739 2.81198 4.65865 3.74657 3.74302C4.66168 2.81086 5.76908 2.08949 6.99157 1.62919C8.16124 1.17635 9.4904 0.868354 11.4429 0.776687C11.9306 0.754687 12.3376 0.736354 12.7482 0.721687L13.1039 0.710687C14.4408 0.678114 15.778 0.664057 17.1152 0.66852L20.8846 0.666687ZM18.9999 9.83335C16.5687 9.83335 14.2372 10.7991 12.5181 12.5182C10.799 14.2373 9.83324 16.5689 9.83324 19C9.83324 21.4312 10.799 23.7628 12.5181 25.4818C14.2372 27.2009 16.5687 28.1667 18.9999 28.1667C21.4311 28.1667 23.7626 27.2009 25.4817 25.4818C27.2008 23.7628 28.1666 21.4312 28.1666 19C28.1666 16.5689 27.2008 14.2373 25.4817 12.5182C23.7626 10.7991 21.4311 9.83335 18.9999 9.83335ZM18.9999 13.5C19.7222 13.4999 20.4374 13.642 21.1047 13.9183C21.7721 14.1946 22.3784 14.5997 22.8893 15.1103C23.4001 15.6209 23.8053 16.2272 24.0818 16.8944C24.3583 17.5617 24.5007 18.2768 24.5008 18.9991C24.5009 19.7214 24.3588 20.4366 24.0825 21.1039C23.8062 21.7713 23.4012 22.3777 22.8906 22.8885C22.3799 23.3993 21.7737 23.8045 21.1064 24.081C20.4392 24.3575 19.724 24.4999 19.0017 24.5C17.543 24.5 16.1441 23.9206 15.1126 22.8891C14.0812 21.8577 13.5017 20.4587 13.5017 19C13.5017 17.5413 14.0812 16.1424 15.1126 15.1109C16.1441 14.0795 17.543 13.5 19.0017 13.5M28.6267 7.08335C28.0189 7.08335 27.4361 7.3248 27.0063 7.75457C26.5765 8.18434 26.3351 8.76723 26.3351 9.37502C26.3351 9.98281 26.5765 10.5657 27.0063 10.9955C27.4361 11.4252 28.0189 11.6667 28.6267 11.6667C29.2345 11.6667 29.8174 11.4252 30.2472 10.9955C30.677 10.5657 30.9184 9.98281 30.9184 9.37502C30.9184 8.76723 30.677 8.18434 30.2472 7.75457C29.8174 7.3248 29.2345 7.08335 28.6267 7.08335Z" fill="white"/>
</svg>
